# xmcd
#
# Track frame offsets:
# 150
# 18733
# 37684
# 56015
# 81445
# 101069
# 121583
# 136983
# 163406
# 186753
#
# Disc length: 2748 seconds
#
# Revision: 2
# Processed by: cddbd v1.5.1PL0 Copyright (c) Steve Scherf et al.
# Submitted via: Axialis_AX_CDPlayer 2.6
#
DISCID=820aba0a
DTITLE=Joyce Cooling - This Girl's Got To Play
DYEAR=2004
DGENRE=Jazz
TTITLE0=Expression
TTITLE1=Take Me There
TTITLE2=Camelback
TTITLE3=No More Blues
TTITLE4=Green Impala
TTITLE5=This Girl's Got To Play
TTITLE6=Toast and Jam
TTITLE7=Natural Fact
TTITLE8=The Wizard
TTITLE9=Talk
EXTD=YEAR: 2004
EXTT0=
EXTT1=
EXTT2=
EXTT3=
EXTT4=
EXTT5=
EXTT6=
EXTT7=
EXTT8=
EXTT9=
PLAYORDER=
